<svg width="16" height="17" viewBox="0 0 16 17" fill="none" xmlns="http://www.w3.org/2000/svg">
<path d="M1.22663 7.04702C1.90408 7.04702 2.45327 6.49784 2.45327 5.82038C2.45327 5.14293 1.90408 4.59375 1.22663 4.59375C0.549182 4.59375 0 5.14293 0 5.82038C0 6.49784 0.549182 7.04702 1.22663 7.04702Z" fill="black"/>
<path d="M4.52213 7.04702C5.19958 7.04702 5.74876 6.49784 5.74876 5.82038C5.74876 5.14293 5.19958 4.59375 4.52213 4.59375C3.84468 4.59375 3.2955 5.14293 3.2955 5.82038C3.2955 6.49784 3.84468 7.04702 4.52213 7.04702Z" fill="black"/>
<path d="M7.81763 7.04702C8.49508 7.04702 9.04426 6.49784 9.04426 5.82038C9.04426 5.14293 8.49508 4.59375 7.81763 4.59375C7.14017 4.59375 6.59099 5.14293 6.59099 5.82038C6.59099 6.49784 7.14017 7.04702 7.81763 7.04702Z" fill="black"/>
<path d="M11.1127 7.04702C11.7901 7.04702 12.3393 6.49784 12.3393 5.82038C12.3393 5.14293 11.7901 4.59375 11.1127 4.59375C10.4352 4.59375 9.88603 5.14293 9.88603 5.82038C9.88603 6.49784 10.4352 7.04702 11.1127 7.04702Z" fill="black"/>
<path d="M1.22663 10.343C1.90408 10.343 2.45327 9.79379 2.45327 9.11634C2.45327 8.43889 1.90408 7.88971 1.22663 7.88971C0.549182 7.88971 0 8.43889 0 9.11634C0 9.79379 0.549182 10.343 1.22663 10.343Z" fill="black"/>
<path d="M4.52213 10.343C5.19958 10.343 5.74876 9.79379 5.74876 9.11634C5.74876 8.43889 5.19958 7.88971 4.52213 7.88971C3.84468 7.88971 3.2955 8.43889 3.2955 9.11634C3.2955 9.79379 3.84468 10.343 4.52213 10.343Z" fill="black"/>
<path d="M7.81763 10.343C8.49508 10.343 9.04426 9.79379 9.04426 9.11634C9.04426 8.43889 8.49508 7.88971 7.81763 7.88971C7.14017 7.88971 6.59099 8.43889 6.59099 9.11634C6.59099 9.79379 7.14017 10.343 7.81763 10.343Z" fill="black"/>
<path d="M11.1127 10.343C11.7901 10.343 12.3393 9.79379 12.3393 9.11634C12.3393 8.43889 11.7901 7.88971 11.1127 7.88971C10.4352 7.88971 9.88603 8.43889 9.88603 9.11634C9.88603 9.79379 10.4352 10.343 11.1127 10.343Z" fill="black"/>
<path d="M1.22663 13.6389C1.90408 13.6389 2.45327 13.0897 2.45327 12.4123C2.45327 11.7348 1.90408 11.1857 1.22663 11.1857C0.549182 11.1857 0 11.7348 0 12.4123C0 13.0897 0.549182 13.6389 1.22663 13.6389Z" fill="black"/>
<path d="M4.52213 13.6389C5.19958 13.6389 5.74876 13.0897 5.74876 12.4123C5.74876 11.7348 5.19958 11.1857 4.52213 11.1857C3.84468 11.1857 3.2955 11.7348 3.2955 12.4123C3.2955 13.0897 3.84468 13.6389 4.52213 13.6389Z" fill="black"/>
<path d="M7.81763 13.6389C8.49508 13.6389 9.04426 13.0897 9.04426 12.4123C9.04426 11.7348 8.49508 11.1857 7.81763 11.1857C7.14017 11.1857 6.59099 11.7348 6.59099 12.4123C6.59099 13.0897 7.14017 13.6389 7.81763 13.6389Z" fill="black"/>
<path d="M11.1127 13.6389C11.7901 13.6389 12.3393 13.0897 12.3393 12.4123C12.3393 11.7348 11.7901 11.1857 11.1127 11.1857C10.4352 11.1857 9.88603 11.7348 9.88603 12.4123C9.88603 13.0897 10.4352 13.6389 11.1127 13.6389Z" fill="black"/>
<path d="M1.22663 16.933C1.90408 16.933 2.45327 16.3839 2.45327 15.7064C2.45327 15.029 1.90408 14.4798 1.22663 14.4798C0.549182 14.4798 0 15.029 0 15.7064C0 16.3839 0.549182 16.933 1.22663 16.933Z" fill="black"/>
<path d="M4.52213 16.933C5.19958 16.933 5.74876 16.3839 5.74876 15.7064C5.74876 15.029 5.19958 14.4798 4.52213 14.4798C3.84468 14.4798 3.2955 15.029 3.2955 15.7064C3.2955 16.3839 3.84468 16.933 4.52213 16.933Z" fill="black"/>
<path d="M7.81763 16.933C8.49508 16.933 9.04426 16.3839 9.04426 15.7064C9.04426 15.029 8.49508 14.4798 7.81763 14.4798C7.14017 14.4798 6.59099 15.029 6.59099 15.7064C6.59099 16.3839 7.14017 16.933 7.81763 16.933Z" fill="black"/>
<path d="M11.1127 16.933C11.7901 16.933 12.3393 16.3839 12.3393 15.7064C12.3393 15.029 11.7901 14.4798 11.1127 14.4798C10.4352 14.4798 9.88603 15.029 9.88603 15.7064C9.88603 16.3839 10.4352 16.933 11.1127 16.933Z" fill="black"/>
</svg>
