<svg width="16" height="17" viewBox="0 0 16 17" fill="none" xmlns="http://www.w3.org/2000/svg">
<path d="M1.22663 10.047C1.90408 10.047 2.45327 9.49784 2.45327 8.82038C2.45327 8.14293 1.90408 7.59375 1.22663 7.59375C0.549182 7.59375 0 8.14293 0 8.82038C0 9.49784 0.549182 10.047 1.22663 10.047Z" fill="black"/>
<path d="M4.52213 10.047C5.19958 10.047 5.74876 9.49784 5.74876 8.82038C5.74876 8.14293 5.19958 7.59375 4.52213 7.59375C3.84468 7.59375 3.2955 8.14293 3.2955 8.82038C3.2955 9.49784 3.84468 10.047 4.52213 10.047Z" fill="black"/>
<path d="M7.81763 10.047C8.49508 10.047 9.04426 9.49784 9.04426 8.82038C9.04426 8.14293 8.49508 7.59375 7.81763 7.59375C7.14017 7.59375 6.59099 8.14293 6.59099 8.82038C6.59099 9.49784 7.14017 10.047 7.81763 10.047Z" fill="black"/>
<path d="M1.22663 13.343C1.90408 13.343 2.45327 12.7938 2.45327 12.1163C2.45327 11.4389 1.90408 10.8897 1.22663 10.8897C0.549182 10.8897 0 11.4389 0 12.1163C0 12.7938 0.549182 13.343 1.22663 13.343Z" fill="black"/>
<path d="M4.52213 13.343C5.19958 13.343 5.74876 12.7938 5.74876 12.1163C5.74876 11.4389 5.19958 10.8897 4.52213 10.8897C3.84468 10.8897 3.2955 11.4389 3.2955 12.1163C3.2955 12.7938 3.84468 13.343 4.52213 13.343Z" fill="black"/>
<path d="M7.81763 13.343C8.49508 13.343 9.04426 12.7938 9.04426 12.1163C9.04426 11.4389 8.49508 10.8897 7.81763 10.8897C7.14017 10.8897 6.59099 11.4389 6.59099 12.1163C6.59099 12.7938 7.14017 13.343 7.81763 13.343Z" fill="black"/>
<path d="M1.22663 16.6371C1.90408 16.6371 2.45327 16.0879 2.45327 15.4105C2.45327 14.733 1.90408 14.1838 1.22663 14.1838C0.549182 14.1838 0 14.733 0 15.4105C0 16.0879 0.549182 16.6371 1.22663 16.6371Z" fill="black"/>
<path d="M4.52213 16.6371C5.19958 16.6371 5.74876 16.0879 5.74876 15.4105C5.74876 14.733 5.19958 14.1838 4.52213 14.1838C3.84468 14.1838 3.2955 14.733 3.2955 15.4105C3.2955 16.0879 3.84468 16.6371 4.52213 16.6371Z" fill="black"/>
<path d="M7.81763 16.6371C8.49508 16.6371 9.04426 16.0879 9.04426 15.4105C9.04426 14.733 8.49508 14.1838 7.81763 14.1838C7.14017 14.1838 6.59099 14.733 6.59099 15.4105C6.59099 16.0879 7.14017 16.6371 7.81763 16.6371Z" fill="black"/>
</svg>
