<svg width="16" height="17" viewBox="0 0 16 17" fill="none" xmlns="http://www.w3.org/2000/svg">
<path d="M1.22663 13.047C1.90408 13.047 2.45327 12.4978 2.45327 11.8204C2.45327 11.1429 1.90408 10.5938 1.22663 10.5938C0.549182 10.5938 0 11.1429 0 11.8204C0 12.4978 0.549182 13.047 1.22663 13.047Z" fill="black"/>
<path d="M4.52213 13.047C5.19958 13.047 5.74876 12.4978 5.74876 11.8204C5.74876 11.1429 5.19958 10.5938 4.52213 10.5938C3.84468 10.5938 3.2955 11.1429 3.2955 11.8204C3.2955 12.4978 3.84468 13.047 4.52213 13.047Z" fill="black"/>
<path d="M1.22663 16.3411C1.90408 16.3411 2.45327 15.792 2.45327 15.1145C2.45327 14.4371 1.90408 13.8879 1.22663 13.8879C0.549182 13.8879 0 14.4371 0 15.1145C0 15.792 0.549182 16.3411 1.22663 16.3411Z" fill="black"/>
<path d="M4.52213 16.3411C5.19958 16.3411 5.74876 15.792 5.74876 15.1145C5.74876 14.4371 5.19958 13.8879 4.52213 13.8879C3.84468 13.8879 3.2955 14.4371 3.2955 15.1145C3.2955 15.792 3.84468 16.3411 4.52213 16.3411Z" fill="black"/>
</svg>
