<svg width="16" height="17" viewBox="0 0 16 17" fill="none" xmlns="http://www.w3.org/2000/svg">
<path d="M1.22663 0.59375C0.548377 0.59375 0 1.14213 0 1.82038C0 2.49864 0.548377 3.04702 1.22663 3.04702C1.90489 3.04702 2.45327 2.49864 2.45327 1.82038C2.45327 1.14213 1.90489 0.59375 1.22663 0.59375Z" fill="black"/>
<path d="M4.52213 0.59375C3.84387 0.59375 3.2955 1.14213 3.2955 1.82038C3.2955 2.49864 3.84387 3.04702 4.52213 3.04702C5.20039 3.04702 5.74876 2.49864 5.74876 1.82038C5.74876 1.14213 5.20039 0.59375 4.52213 0.59375Z" fill="black"/>
<path d="M7.81763 3.04702C8.49508 3.04702 9.04426 2.49784 9.04426 1.82038C9.04426 1.14293 8.49508 0.59375 7.81763 0.59375C7.14017 0.59375 6.59099 1.14293 6.59099 1.82038C6.59099 2.49784 7.14017 3.04702 7.81763 3.04702Z" fill="black"/>
<path d="M11.1127 3.04702C11.7901 3.04702 12.3393 2.49784 12.3393 1.82038C12.3393 1.14293 11.7901 0.59375 11.1127 0.59375C10.4352 0.59375 9.88603 1.14293 9.88603 1.82038C9.88603 2.49784 10.4352 3.04702 11.1127 3.04702Z" fill="black"/>
<path d="M14.4086 3.04702C15.0861 3.04702 15.6353 2.49784 15.6353 1.82038C15.6353 1.14293 15.0861 0.59375 14.4086 0.59375C13.7312 0.59375 13.182 1.14293 13.182 1.82038C13.182 2.49784 13.7312 3.04702 14.4086 3.04702Z" fill="black"/>
<path d="M1.22663 6.34297C1.90408 6.34297 2.45327 5.79379 2.45327 5.11634C2.45327 4.43889 1.90408 3.88971 1.22663 3.88971C0.549182 3.88971 0 4.43889 0 5.11634C0 5.79379 0.549182 6.34297 1.22663 6.34297Z" fill="black"/>
<path d="M4.52213 6.34297C5.19958 6.34297 5.74876 5.79379 5.74876 5.11634C5.74876 4.43889 5.19958 3.88971 4.52213 3.88971C3.84468 3.88971 3.2955 4.43889 3.2955 5.11634C3.2955 5.79379 3.84468 6.34297 4.52213 6.34297Z" fill="black"/>
<path d="M7.81763 6.34297C8.49508 6.34297 9.04426 5.79379 9.04426 5.11634C9.04426 4.43889 8.49508 3.88971 7.81763 3.88971C7.14017 3.88971 6.59099 4.43889 6.59099 5.11634C6.59099 5.79379 7.14017 6.34297 7.81763 6.34297Z" fill="black"/>
<path d="M11.1127 6.34297C11.7901 6.34297 12.3393 5.79379 12.3393 5.11634C12.3393 4.43889 11.7901 3.88971 11.1127 3.88971C10.4352 3.88971 9.88603 4.43889 9.88603 5.11634C9.88603 5.79379 10.4352 6.34297 11.1127 6.34297Z" fill="black"/>
<path d="M14.4086 6.34297C15.0861 6.34297 15.6353 5.79379 15.6353 5.11634C15.6353 4.43889 15.0861 3.88971 14.4086 3.88971C13.7312 3.88971 13.182 4.43889 13.182 5.11634C13.182 5.79379 13.7312 6.34297 14.4086 6.34297Z" fill="black"/>
<path d="M1.22663 9.63893C1.90408 9.63893 2.45327 9.08975 2.45327 8.4123C2.45327 7.73484 1.90408 7.18566 1.22663 7.18566C0.549182 7.18566 0 7.73484 0 8.4123C0 9.08975 0.549182 9.63893 1.22663 9.63893Z" fill="black"/>
<path d="M4.52213 9.63893C5.19958 9.63893 5.74876 9.08975 5.74876 8.4123C5.74876 7.73484 5.19958 7.18566 4.52213 7.18566C3.84468 7.18566 3.2955 7.73484 3.2955 8.4123C3.2955 9.08975 3.84468 9.63893 4.52213 9.63893Z" fill="black"/>
<path d="M7.81763 9.63893C8.49508 9.63893 9.04426 9.08975 9.04426 8.4123C9.04426 7.73484 8.49508 7.18566 7.81763 7.18566C7.14017 7.18566 6.59099 7.73484 6.59099 8.4123C6.59099 9.08975 7.14017 9.63893 7.81763 9.63893Z" fill="black"/>
<path d="M11.1127 9.63893C11.7901 9.63893 12.3393 9.08975 12.3393 8.4123C12.3393 7.73484 11.7901 7.18566 11.1127 7.18566C10.4352 7.18566 9.88603 7.73484 9.88603 8.4123C9.88603 9.08975 10.4352 9.63893 11.1127 9.63893Z" fill="black"/>
<path d="M14.4086 9.63893C15.0861 9.63893 15.6353 9.08975 15.6353 8.4123C15.6353 7.73484 15.0861 7.18566 14.4086 7.18566C13.7312 7.18566 13.182 7.73484 13.182 8.4123C13.182 9.08975 13.7312 9.63893 14.4086 9.63893Z" fill="black"/>
<path d="M1.22663 12.9349C1.90408 12.9349 2.45327 12.3857 2.45327 11.7083C2.45327 11.0308 1.90408 10.4816 1.22663 10.4816C0.549182 10.4816 0 11.0308 0 11.7083C0 12.3857 0.549182 12.9349 1.22663 12.9349Z" fill="black"/>
<path d="M4.52213 12.9349C5.19958 12.9349 5.74876 12.3857 5.74876 11.7083C5.74876 11.0308 5.19958 10.4816 4.52213 10.4816C3.84468 10.4816 3.2955 11.0308 3.2955 11.7083C3.2955 12.3857 3.84468 12.9349 4.52213 12.9349Z" fill="black"/>
<path d="M7.81763 12.9349C8.49508 12.9349 9.04426 12.3857 9.04426 11.7083C9.04426 11.0308 8.49508 10.4816 7.81763 10.4816C7.14017 10.4816 6.59099 11.0308 6.59099 11.7083C6.59099 12.3857 7.14017 12.9349 7.81763 12.9349Z" fill="black"/>
<path d="M11.1127 12.9349C11.7901 12.9349 12.3393 12.3857 12.3393 11.7083C12.3393 11.0308 11.7901 10.4816 11.1127 10.4816C10.4352 10.4816 9.88603 11.0308 9.88603 11.7083C9.88603 12.3857 10.4352 12.9349 11.1127 12.9349Z" fill="black"/>
<path d="M14.4086 12.9349C15.0861 12.9349 15.6353 12.3857 15.6353 11.7083C15.6353 11.0308 15.0861 10.4816 14.4086 10.4816C13.7312 10.4816 13.182 11.0308 13.182 11.7083C13.182 12.3857 13.7312 12.9349 14.4086 12.9349Z" fill="black"/>
<path d="M1.22663 16.229C1.90408 16.229 2.45327 15.6798 2.45327 15.0024C2.45327 14.3249 1.90408 13.7757 1.22663 13.7757C0.549182 13.7757 0 14.3249 0 15.0024C0 15.6798 0.549182 16.229 1.22663 16.229Z" fill="black"/>
<path d="M4.52213 16.229C5.19958 16.229 5.74876 15.6798 5.74876 15.0024C5.74876 14.3249 5.19958 13.7757 4.52213 13.7757C3.84468 13.7757 3.2955 14.3249 3.2955 15.0024C3.2955 15.6798 3.84468 16.229 4.52213 16.229Z" fill="black"/>
<path d="M7.81763 16.229C8.49508 16.229 9.04426 15.6798 9.04426 15.0024C9.04426 14.3249 8.49508 13.7757 7.81763 13.7757C7.14017 13.7757 6.59099 14.3249 6.59099 15.0024C6.59099 15.6798 7.14017 16.229 7.81763 16.229Z" fill="black"/>
<path d="M11.1127 16.229C11.7901 16.229 12.3393 15.6798 12.3393 15.0024C12.3393 14.3249 11.7901 13.7757 11.1127 13.7757C10.4352 13.7757 9.88603 14.3249 9.88603 15.0024C9.88603 15.6798 10.4352 16.229 11.1127 16.229Z" fill="black"/>
<path d="M14.4086 16.229C15.0861 16.229 15.6353 15.6798 15.6353 15.0024C15.6353 14.3249 15.0861 13.7757 14.4086 13.7757C13.7312 13.7757 13.182 14.3249 13.182 15.0024C13.182 15.6798 13.7312 16.229 14.4086 16.229Z" fill="black"/>
</svg>
